<svg width="75" height="76" viewBox="0 0 75 76" fill="none" xmlns="http://www.w3.org/2000/svg">
<g clip-path="url(#clip0_52_127)">
<path fill-rule="evenodd" clip-rule="evenodd" d="M57.6805 12.0537H63.4464V17.8196H57.6805V12.0537Z" fill="#CA0520" stroke="white" stroke-width="0.288"/>
<path fill-rule="evenodd" clip-rule="evenodd" d="M46.1489 12.0537H51.9147V17.8196H46.1489V12.0537Z" fill="#CA0520" stroke="white" stroke-width="0.288"/>
<path fill-rule="evenodd" clip-rule="evenodd" d="M40.383 12.0537H46.1489V17.8196H40.383V12.0537Z" fill="#CA0520" stroke="white" stroke-width="0.288"/>
<path fill-rule="evenodd" clip-rule="evenodd" d="M28.8513 12.0537H34.6171V17.8196H28.8513V12.0537Z" fill="#CA0520" stroke="white" stroke-width="0.288"/>
<path fill-rule="evenodd" clip-rule="evenodd" d="M23.0854 12.0537H28.8512V17.8196H23.0854V12.0537Z" fill="#CA0520" stroke="white" stroke-width="0.288"/>
<path fill-rule="evenodd" clip-rule="evenodd" d="M11.5537 12.0537H17.3196V17.8196H11.5537V12.0537Z" fill="#CA0520" stroke="white" stroke-width="0.288"/>
<path fill-rule="evenodd" clip-rule="evenodd" d="M46.1489 6.28784H51.9147V12.0537H46.1489V6.28784Z" fill="#CA0520" stroke="white" stroke-width="0.288"/>
<path fill-rule="evenodd" clip-rule="evenodd" d="M40.383 6.28784H46.1489V12.0537H40.383V6.28784Z" fill="#CA0520" stroke="white" stroke-width="0.288"/>
<path fill-rule="evenodd" clip-rule="evenodd" d="M28.8513 6.28784H34.6171V12.0537H28.8513V6.28784Z" fill="#CA0520" stroke="white" stroke-width="0.288"/>
<path fill-rule="evenodd" clip-rule="evenodd" d="M23.0854 6.28784H28.8512V12.0537H23.0854V6.28784Z" fill="#CA0520" stroke="white" stroke-width="0.288"/>
<path fill-rule="evenodd" clip-rule="evenodd" d="M63.4464 29.3513H69.2122V35.1172H63.4464V29.3513Z" fill="#CA0520" stroke="white" stroke-width="0.288"/>
<path fill-rule="evenodd" clip-rule="evenodd" d="M57.6805 29.3513H63.4464V35.1172H57.6805V29.3513Z" fill="#CA0520" stroke="white" stroke-width="0.288"/>
<path fill-rule="evenodd" clip-rule="evenodd" d="M51.9147 29.3513H57.6805V35.1172H51.9147V29.3513Z" fill="#CA0520" stroke="white" stroke-width="0.288"/>
<path fill-rule="evenodd" clip-rule="evenodd" d="M17.3196 29.3513H23.0854V35.1172H17.3196V29.3513Z" fill="#CA0520" stroke="white" stroke-width="0.288"/>
<path fill-rule="evenodd" clip-rule="evenodd" d="M11.5537 29.3513H17.3196V35.1172H11.5537V29.3513Z" fill="#CA0520" stroke="white" stroke-width="0.288"/>
<path fill-rule="evenodd" clip-rule="evenodd" d="M5.78784 29.3513H11.5537V35.1172H5.78784V29.3513Z" fill="#CA0520" stroke="white" stroke-width="0.288"/>
<path fill-rule="evenodd" clip-rule="evenodd" d="M46.1489 52.4147H51.9147V58.1805H46.1489V52.4147Z" fill="#CA0520" stroke="white" stroke-width="0.288"/>
<path fill-rule="evenodd" clip-rule="evenodd" d="M40.383 52.4147H46.1489V58.1805H40.383V52.4147Z" fill="#CA0520" stroke="white" stroke-width="0.288"/>
<path fill-rule="evenodd" clip-rule="evenodd" d="M28.8513 52.4147H34.6171V58.1805H28.8513V52.4147Z" fill="#CA0520" stroke="white" stroke-width="0.288"/>
<path fill-rule="evenodd" clip-rule="evenodd" d="M23.0854 52.4147H28.8512V58.1805H23.0854V52.4147Z" fill="#CA0520" stroke="white" stroke-width="0.288"/>
<path fill-rule="evenodd" clip-rule="evenodd" d="M57.6805 58.1805H63.4464V63.9464H57.6805V58.1805Z" fill="#CA0520" stroke="white" stroke-width="0.288"/>
<path fill-rule="evenodd" clip-rule="evenodd" d="M46.1489 58.1805H51.9147V63.9464H46.1489V58.1805Z" fill="#CA0520" stroke="white" stroke-width="0.288"/>
<path fill-rule="evenodd" clip-rule="evenodd" d="M40.383 58.1805H46.1489V63.9464H40.383V58.1805Z" fill="#CA0520" stroke="white" stroke-width="0.288"/>
<path fill-rule="evenodd" clip-rule="evenodd" d="M28.8513 58.1805H34.6171V63.9464H28.8513V58.1805Z" fill="#CA0520" stroke="white" stroke-width="0.288"/>
<path fill-rule="evenodd" clip-rule="evenodd" d="M23.0854 58.1805H28.8512V63.9464H23.0854V58.1805Z" fill="#CA0520" stroke="white" stroke-width="0.288"/>
<path fill-rule="evenodd" clip-rule="evenodd" d="M11.5537 58.1805H17.3196V63.9464H11.5537V58.1805Z" fill="#CA0520" stroke="white" stroke-width="0.288"/>
<path fill-rule="evenodd" clip-rule="evenodd" d="M46.1489 63.9464H51.9147V69.7123H46.1489V63.9464Z" fill="#CA0520" stroke="white" stroke-width="0.288"/>
<path fill-rule="evenodd" clip-rule="evenodd" d="M40.383 63.9464H46.1489V69.7123H40.383V63.9464Z" fill="#CA0520" stroke="white" stroke-width="0.288"/>
<path fill-rule="evenodd" clip-rule="evenodd" d="M28.8513 63.9464H34.6171V69.7123H28.8513V63.9464Z" fill="#CA0520" stroke="white" stroke-width="0.288"/>
<path fill-rule="evenodd" clip-rule="evenodd" d="M23.0854 63.9464H28.8512V69.7123H23.0854V63.9464Z" fill="#CA0520" stroke="white" stroke-width="0.288"/>
<path fill-rule="evenodd" clip-rule="evenodd" d="M46.1489 69.7123H51.9147V75.4781H46.1489V69.7123Z" fill="#CA0520" stroke="white" stroke-width="0.288"/>
<path fill-rule="evenodd" clip-rule="evenodd" d="M23.0854 69.7123H28.8512V75.4781H23.0854V69.7123Z" fill="#CA0520" stroke="white" stroke-width="0.288"/>
<path fill-rule="evenodd" clip-rule="evenodd" d="M46.1489 17.8196H51.9147V23.5854H46.1489V17.8196Z" fill="#CA0520" stroke="white" stroke-width="0.288"/>
<path fill-rule="evenodd" clip-rule="evenodd" d="M40.383 17.8196H46.1489V23.5854H40.383V17.8196Z" fill="#CA0520" stroke="white" stroke-width="0.288"/>
<path fill-rule="evenodd" clip-rule="evenodd" d="M28.8513 17.8196H34.6171V23.5854H28.8513V17.8196Z" fill="#CA0520" stroke="white" stroke-width="0.288"/>
<path fill-rule="evenodd" clip-rule="evenodd" d="M23.0854 17.8196H28.8512V23.5854H23.0854V17.8196Z" fill="#CA0520" stroke="white" stroke-width="0.288"/>
<path fill-rule="evenodd" clip-rule="evenodd" d="M63.4464 40.8831H69.2122V46.6489H63.4464V40.8831Z" fill="#CA0520" stroke="white" stroke-width="0.288"/>
<path fill-rule="evenodd" clip-rule="evenodd" d="M57.6805 40.8831H63.4464V46.6489H57.6805V40.8831Z" fill="#CA0520" stroke="white" stroke-width="0.288"/>
<path fill-rule="evenodd" clip-rule="evenodd" d="M51.9147 40.8831H57.6805V46.6489H51.9147V40.8831Z" fill="#CA0520" stroke="white" stroke-width="0.288"/>
<path fill-rule="evenodd" clip-rule="evenodd" d="M17.3196 40.8831H23.0854V46.6489H17.3196V40.8831Z" fill="#CA0520" stroke="white" stroke-width="0.288"/>
<path fill-rule="evenodd" clip-rule="evenodd" d="M11.5537 40.8831H17.3196V46.6489H11.5537V40.8831Z" fill="#CA0520" stroke="white" stroke-width="0.288"/>
<path fill-rule="evenodd" clip-rule="evenodd" d="M5.78784 40.8831H11.5537V46.6489H5.78784V40.8831Z" fill="#CA0520" stroke="white" stroke-width="0.288"/>
<path fill-rule="evenodd" clip-rule="evenodd" d="M46.1489 0.521973H51.9147V6.28783H46.1489V0.521973Z" fill="#CA0520" stroke="white" stroke-width="0.288"/>
<path fill-rule="evenodd" clip-rule="evenodd" d="M23.0854 0.521973H28.8512V6.28783H23.0854V0.521973Z" fill="#CA0520" stroke="white" stroke-width="0.288"/>
<path fill-rule="evenodd" clip-rule="evenodd" d="M69.2122 23.5854H74.9781V29.3513H69.2122V23.5854Z" fill="#CA0520" stroke="white" stroke-width="0.288"/>
<path fill-rule="evenodd" clip-rule="evenodd" d="M63.4464 23.5854H69.2122V29.3513H63.4464V23.5854Z" fill="#CA0520" stroke="white" stroke-width="0.288"/>
<path fill-rule="evenodd" clip-rule="evenodd" d="M57.6805 23.5854H63.4464V29.3513H57.6805V23.5854Z" fill="#CA0520" stroke="white" stroke-width="0.288"/>
<path fill-rule="evenodd" clip-rule="evenodd" d="M51.9147 23.5854H57.6805V29.3513H51.9147V23.5854Z" fill="#CA0520" stroke="white" stroke-width="0.288"/>
<path fill-rule="evenodd" clip-rule="evenodd" d="M46.1489 23.5854H51.9147V29.3513H46.1489V23.5854Z" fill="#CA0520" stroke="white" stroke-width="0.288"/>
<path fill-rule="evenodd" clip-rule="evenodd" d="M23.0854 23.5854H28.8512V29.3513H23.0854V23.5854Z" fill="#CA0520" stroke="white" stroke-width="0.288"/>
<path fill-rule="evenodd" clip-rule="evenodd" d="M17.3196 23.5854H23.0854V29.3513H17.3196V23.5854Z" fill="#CA0520" stroke="white" stroke-width="0.288"/>
<path fill-rule="evenodd" clip-rule="evenodd" d="M11.5537 23.5854H17.3196V29.3513H11.5537V23.5854Z" fill="#CA0520" stroke="white" stroke-width="0.288"/>
<path fill-rule="evenodd" clip-rule="evenodd" d="M5.78784 23.5854H11.5537V29.3513H5.78784V23.5854Z" fill="#CA0520" stroke="white" stroke-width="0.288"/>
<path fill-rule="evenodd" clip-rule="evenodd" d="M0.0219727 23.5854H5.78783V29.3513H0.0219727V23.5854Z" fill="#CA0520" stroke="white" stroke-width="0.288"/>
<path fill-rule="evenodd" clip-rule="evenodd" d="M69.2122 46.6488H74.9781V52.4147H69.2122V46.6488Z" fill="#CA0520" stroke="white" stroke-width="0.288"/>
<path fill-rule="evenodd" clip-rule="evenodd" d="M63.4464 46.6488H69.2122V52.4147H63.4464V46.6488Z" fill="#CA0520" stroke="white" stroke-width="0.288"/>
<path fill-rule="evenodd" clip-rule="evenodd" d="M57.6805 46.6488H63.4464V52.4147H57.6805V46.6488Z" fill="#CA0520" stroke="white" stroke-width="0.288"/>
<path fill-rule="evenodd" clip-rule="evenodd" d="M51.9147 46.6488H57.6805V52.4147H51.9147V46.6488Z" fill="#CA0520" stroke="white" stroke-width="0.288"/>
<path fill-rule="evenodd" clip-rule="evenodd" d="M46.1489 46.6488H51.9147V52.4147H46.1489V46.6488Z" fill="#CA0520" stroke="white" stroke-width="0.288"/>
<path fill-rule="evenodd" clip-rule="evenodd" d="M46.1489 35.1172H51.9147V40.883H46.1489V35.1172Z" fill="#1F1A17" stroke="white" stroke-width="0.288"/>
<path fill-rule="evenodd" clip-rule="evenodd" d="M34.6171 35.1172H40.383V40.883H34.6171V35.1172Z" fill="#1F1A17" stroke="white" stroke-width="0.288"/>
<path fill-rule="evenodd" clip-rule="evenodd" d="M23.0854 35.1172H28.8512V40.883H23.0854V35.1172Z" fill="#1F1A17" stroke="white" stroke-width="0.288"/>
<path fill-rule="evenodd" clip-rule="evenodd" d="M69.2122 6.28784H74.9781V12.0537H69.2122V6.28784Z" fill="#1F1A17" stroke="white" stroke-width="0.288"/>
<path fill-rule="evenodd" clip-rule="evenodd" d="M63.4464 6.28784H69.2122V12.0537H63.4464V6.28784Z" fill="#1F1A17" stroke="white" stroke-width="0.288"/>
<path fill-rule="evenodd" clip-rule="evenodd" d="M5.78784 6.28784H11.5537V12.0537H5.78784V6.28784Z" fill="#1F1A17" stroke="white" stroke-width="0.288"/>
<path fill-rule="evenodd" clip-rule="evenodd" d="M0.0219727 6.28784H5.78783V12.0537H0.0219727V6.28784Z" fill="#1F1A17" stroke="white" stroke-width="0.288"/>
<path fill-rule="evenodd" clip-rule="evenodd" d="M40.383 29.3513H46.1489V35.1172H40.383V29.3513Z" fill="#1F1A17" stroke="white" stroke-width="0.288"/>
<path fill-rule="evenodd" clip-rule="evenodd" d="M28.8513 29.3513H34.6171V35.1172H28.8513V29.3513Z" fill="#1F1A17" stroke="white" stroke-width="0.288"/>
<path fill-rule="evenodd" clip-rule="evenodd" d="M51.9147 52.4147H57.6805V58.1805H51.9147V52.4147Z" fill="#1F1A17" stroke="white" stroke-width="0.288"/>
<path fill-rule="evenodd" clip-rule="evenodd" d="M17.3196 52.4147H23.0854V58.1805H17.3196V52.4147Z" fill="#1F1A17" stroke="white" stroke-width="0.288"/>
<path fill-rule="evenodd" clip-rule="evenodd" d="M69.2122 63.9464H74.9781V69.7123H69.2122V63.9464Z" fill="#1F1A17" stroke="white" stroke-width="0.288"/>
<path fill-rule="evenodd" clip-rule="evenodd" d="M63.4464 63.9464H69.2122V69.7123H63.4464V63.9464Z" fill="#1F1A17" stroke="white" stroke-width="0.288"/>
<path fill-rule="evenodd" clip-rule="evenodd" d="M5.78784 63.9464H11.5537V69.7123H5.78784V63.9464Z" fill="#1F1A17" stroke="white" stroke-width="0.288"/>
<path fill-rule="evenodd" clip-rule="evenodd" d="M0.0219727 63.9464H5.78783V69.7123H0.0219727V63.9464Z" fill="#1F1A17" stroke="white" stroke-width="0.288"/>
<path fill-rule="evenodd" clip-rule="evenodd" d="M63.4464 69.7123H69.2122V75.4781H63.4464V69.7123Z" fill="#1F1A17" stroke="white" stroke-width="0.288"/>
<path fill-rule="evenodd" clip-rule="evenodd" d="M5.78784 69.7123H11.5537V75.4781H5.78784V69.7123Z" fill="#1F1A17" stroke="white" stroke-width="0.288"/>
<path fill-rule="evenodd" clip-rule="evenodd" d="M51.9147 17.8196H57.6805V23.5854H51.9147V17.8196Z" fill="#1F1A17" stroke="white" stroke-width="0.288"/>
<path fill-rule="evenodd" clip-rule="evenodd" d="M17.3196 17.8196H23.0854V23.5854H17.3196V17.8196Z" fill="#1F1A17" stroke="white" stroke-width="0.288"/>
<path fill-rule="evenodd" clip-rule="evenodd" d="M40.383 40.8831H46.1489V46.6489H40.383V40.8831Z" fill="#1F1A17" stroke="white" stroke-width="0.288"/>
<path fill-rule="evenodd" clip-rule="evenodd" d="M28.8513 40.8831H34.6171V46.6489H28.8513V40.8831Z" fill="#1F1A17" stroke="white" stroke-width="0.288"/>
<path fill-rule="evenodd" clip-rule="evenodd" d="M63.4464 0.521973H69.2122V6.28783H63.4464V0.521973Z" fill="#1F1A17" stroke="white" stroke-width="0.288"/>
<path fill-rule="evenodd" clip-rule="evenodd" d="M5.78784 0.521973H11.5537V6.28783H5.78784V0.521973Z" fill="#1F1A17" stroke="white" stroke-width="0.288"/>
<path fill-rule="evenodd" clip-rule="evenodd" d="M34.6171 23.5854H40.383V29.3513H34.6171V23.5854Z" fill="#1F1A17" stroke="white" stroke-width="0.288"/>
<path fill-rule="evenodd" clip-rule="evenodd" d="M34.6171 46.6488H40.383V52.4147H34.6171V46.6488Z" fill="#1F1A17" stroke="white" stroke-width="0.288"/>
<path fill-rule="evenodd" clip-rule="evenodd" d="M23.0854 46.6488H28.8512V52.4147H23.0854V46.6488Z" fill="#CA0520" stroke="white" stroke-width="0.288"/>
<path fill-rule="evenodd" clip-rule="evenodd" d="M17.3196 46.6488H23.0854V52.4147H17.3196V46.6488Z" fill="#CA0520" stroke="white" stroke-width="0.288"/>
<path fill-rule="evenodd" clip-rule="evenodd" d="M11.5537 46.6488H17.3196V52.4147H11.5537V46.6488Z" fill="#CA0520" stroke="white" stroke-width="0.288"/>
<path fill-rule="evenodd" clip-rule="evenodd" d="M5.78784 46.6488H11.5537V52.4147H5.78784V46.6488Z" fill="#CA0520" stroke="white" stroke-width="0.288"/>
<path fill-rule="evenodd" clip-rule="evenodd" d="M0.0219727 46.6488H5.78783V52.4147H0.0219727V46.6488Z" fill="#CA0520" stroke="white" stroke-width="0.288"/>
</g>
<defs>
<clipPath id="clip0_52_127">
<rect width="75" height="75" fill="white" transform="translate(0 0.5)"/>
</clipPath>
</defs>
</svg>
